<svg id="Capa_1" enable-background="new 0 0 512 512" height="512" viewBox="0 0 512 512" width="512" xmlns="http://www.w3.org/2000/svg"><g><g><g><path d="m163.828 251.46c-9.618 0-17.442 7.824-17.442 17.442v34.996c0 9.618 7.824 17.442 17.442 17.442h184.344c9.618 0 17.442-7.824 17.442-17.442v-34.996c0-9.618-7.824-17.442-17.442-17.442zm186.786 17.442v34.996c0 1.347-1.095 2.442-2.442 2.442h-184.344c-1.347 0-2.442-1.095-2.442-2.442v-34.996c0-1.347 1.095-2.442 2.442-2.442h184.344c1.347 0 2.442 1.095 2.442 2.442z"/><path d="m504.5 276.515c4.142 0 7.5-3.358 7.5-7.5v-54.572c0-12.032-8.615-22.087-20-24.329 0-4.649 0-116.58 0-121.754 0-15.916-12.948-28.865-28.864-28.865h-277.089c-6.209 0-12.126-2.671-16.233-7.328l-11.278-12.788c-6.953-7.885-16.97-12.407-27.483-12.407h-85.54c-15.916 0-28.865 12.948-28.865 28.864v155.189c-9.681 3.381-16.648 12.598-16.648 23.417v265.787c0 13.674 11.125 24.798 24.799 24.798h462.402c13.674 0 24.799-11.125 24.799-24.798v-176.3c0-4.142-3.358-7.5-7.5-7.5s-7.5 3.358-7.5 7.5v176.3c0 5.403-4.396 9.798-9.799 9.798h-462.402c-5.403 0-9.799-4.396-9.799-9.798v-265.787c0-5.186 4.052-9.432 9.156-9.766.087 0 .174-.001.261-.005.151-.006.305-.014.506-.028h41.41c4.142 0 7.5-3.358 7.5-7.5s-3.358-7.5-7.5-7.5h-34.686v-77.322c0-7.645 6.22-13.864 13.865-13.864h85.54c6.209 0 12.126 2.671 16.233 7.328l11.278 12.788c6.954 7.884 16.971 12.406 27.483 12.406h277.089c7.645 0 13.864 6.219 13.864 13.864v44.8h-375.603c-4.142 0-7.5 3.358-7.5 7.5s3.358 7.5 7.5 7.5h385.805c5.403 0 9.799 4.396 9.799 9.799v54.572c0 4.143 3.358 7.501 7.5 7.501zm-27.5-156.98c-4.117-2.265-8.842-3.556-13.864-3.556h-277.089c-6.209 0-12.126-2.671-16.233-7.328l-11.278-12.787c-6.953-7.885-16.97-12.407-27.483-12.407h-85.54c-5.022 0-9.747 1.292-13.865 3.556v-51.176c0-7.645 6.22-13.864 13.865-13.864h85.54c6.209 0 12.126 2.671 16.233 7.328l11.279 12.788c6.954 7.884 16.971 12.406 27.483 12.406h277.089c7.645 0 13.864 6.22 13.864 13.865v51.175z"/></g></g></g></svg>