<?xml version="1.0" encoding="iso-8859-1"?>
<!-- Generator: Adobe Illustrator 19.0.0, SVG Export Plug-In . SVG Version: 6.00 Build 0)  -->
<svg version="1.1" id="Layer_1" xmlns="http://www.w3.org/2000/svg" xmlns:xlink="http://www.w3.org/1999/xlink" x="0px" y="0px"
	 viewBox="0 0 512 512" style="enable-background:new 0 0 512 512;" xml:space="preserve">
<g>
	<g>
		<path d="M396,252.125H171V115c0-46.869,38.131-85,85-85s85,38.131,85,85v41.642h-25c-8.284,0-15,6.716-15,15s6.716,15,15,15h40
			c8.284,0,15-6.716,15-15V115C371,51.589,319.411,0,256,0S141,51.589,141,115v137.125h-25c-8.284,0-15,6.716-15,15V357
			c0,85.467,69.533,155,155,155s155-69.533,155-155v-89.875C411,258.84,404.284,252.125,396,252.125z M271,399.133v27.929
			c0,8.284-6.716,15-15,15s-15-6.716-15-15v-27.929c-14.643-5.947-25-20.318-25-37.071c0-22.056,17.944-40,40-40
			c22.056,0,40,17.944,40,40C296,378.815,285.643,393.186,271,399.133z"/>
	</g>
</g>
<g>
</g>
<g>
</g>
<g>
</g>
<g>
</g>
<g>
</g>
<g>
</g>
<g>
</g>
<g>
</g>
<g>
</g>
<g>
</g>
<g>
</g>
<g>
</g>
<g>
</g>
<g>
</g>
<g>
</g>
</svg>
